<?xml version="1.0" encoding="utf-8"?>
<!-- Generator: Adobe Illustrator 26.5.0, SVG Export Plug-In . SVG Version: 6.00 Build 0)  -->
<svg version="1.1" id="Layer_1" xmlns="http://www.w3.org/2000/svg" xmlns:xlink="http://www.w3.org/1999/xlink" x="0px" y="0px"
	 viewBox="0 0 907.09 283.46" style="enable-background:new 0 0 907.09 283.46;" xml:space="preserve">
<style type="text/css">
	.st0{fill:#00A651;}
	.st1{fill:none;}
	.st2{enable-background:new    ;}
	.st3{fill:#D7D8EA;}
	.st4{fill:#2D307A;}
	.st5{font-family:'AreaNormal-Thin';}
	.st6{font-size:50.3311px;}
	.st7{fill:none;stroke:#333366;stroke-miterlimit:10;}
	.st8{fill:#2D307A;stroke:#00A651;stroke-width:4;stroke-miterlimit:10;}
	.st9{fill:none;stroke:#00A651;stroke-width:10;stroke-miterlimit:10;}
</style>
<rect y="0" class="st0" width="907.09" height="283.46"/>
<rect x="272.88" y="93.07" class="st1" width="7.28" height="1.82"/>
<rect y="17.57" class="st0" width="907.09" height="248.32"/>
<g class="st2">
	<path class="st3" d="M337.98,144.11h-43.02l-7.36,21.92h-27.48L301.67,58.4h33.37l41.55,107.63h-31.24L337.98,144.11z
		 M332.42,127.42l-15.87-47.11h-0.33l-15.7,47.11H332.42z"/>
	<path class="st3" d="M385.58,85.22h24.86l-0.82,20.94h0.16c3.76-13.9,12.92-22.25,27.64-22.25c15.54,0,25.52,8.01,27.32,21.1h0.16
		c3.27-13.09,12.11-21.1,27.64-21.1c17.67,0,27.64,11.12,27.64,30.1v52.02h-24.86v-46.29c0-9.49-4.91-15.21-13.41-15.21
		c-9.81,0-16.68,7.52-16.68,22.41v39.09h-24.86v-46.29c0-9.49-4.91-15.21-13.41-15.21c-9.65,0-16.52,7.69-16.52,22.9v38.6h-24.86
		V85.22z"/>
	<path class="st3" d="M612.79,130.37h-57.41c1.14,13.25,7.85,18.97,18.97,18.97c9.65,0,15.87-3.43,16.52-11.29h21.92
		c-0.49,18.48-15.87,29.28-38.93,29.28c-26.83,0-43.51-15.21-43.51-40.89c0-26.66,16.68-42.53,44-42.53
		c22.57,0,38.44,12.92,38.44,39.42V130.37z M590.87,115.81c0-9.16-6.22-13.9-16.52-13.9c-10.47,0-16.36,4.58-18.32,15.21h34.84
		V115.81z"/>
	<path class="st3" d="M624.4,56.92h24.86v19.79H624.4V56.92z M624.4,85.22h24.86v80.81H624.4V85.22z"/>
	<path class="st3" d="M662.35,85.22h24.86l-0.98,21.43h0.33c4.09-15.38,13.58-22.74,31.9-22.74c19.47,0,32.06,10.63,32.06,31.57
		v50.54h-24.86v-44.98c0-11.45-6.54-16.52-17.5-16.52c-13.09,0-20.94,7.69-20.94,23.06v38.44h-24.86V85.22z"/>
	<path class="st3" d="M761.31,133.15V85.22h24.86v44.98c0,11.29,6.22,16.52,16.85,16.52c13.41,0,21.43-8.83,21.43-26.5v-35h24.86
		v80.81h-24.86c0.49-5.56,0.98-12.27,1.14-21.1h-0.33c-3.6,15.54-14.56,22.41-29.93,22.41
		C774.39,167.34,761.31,156.87,761.31,133.15z"/>
</g>
<text transform="matrix(1 0 0 1 265.7305 224.9342)" class="st4 st5 st6">For a Democratic Israel</text>
<g class="st2">
	<path class="st7" d="M271.37,185.68h23.9v2.42h-21.44c0,5.23,0,10.52,0,15.75h20.43v2.21h-20.43c0,6.29,0,12.58,0,18.87h-2.47
		V185.68z"/>
	<path class="st7" d="M299.1,211.15c0-8.66,5.64-14.69,13.74-14.69c8.05,0,13.69,6.04,13.69,14.69c0,8.61-5.64,14.64-13.69,14.64
		C304.74,225.79,299.1,219.75,299.1,211.15z M312.84,223.73c6.64,0,11.17-5.18,11.17-12.58c0-7.4-4.53-12.63-11.17-12.63
		s-11.22,5.23-11.22,12.63C301.62,218.54,306.2,223.73,312.84,223.73z"/>
	<path class="st7" d="M333.83,197.26h2.21v6.14h0.2c1.41-4.23,5.13-6.95,9.31-6.95c1.01,0,2.26,0.15,3.27,0.55v2.47
		c-0.91-0.45-2.52-0.7-3.42-0.7c-5.74,0-9.26,5.84-9.26,11.88v14.29h-2.31V197.26z"/>
	<path class="st7" d="M364.03,218.85c0-5.28,4.88-7.45,10.32-8.56c4.78-0.96,8.96-1.06,8.96-5.03c0-3.42-3.07-6.74-7.8-6.74
		c-4.13,0-7.04,2.57-8.15,6.24l-2.31-0.81c1.61-5.18,6.29-7.5,10.67-7.5c4.48,0,10.06,2.42,10.06,9.06v10.77
		c0,4.63,0.35,6.49,0.91,8.66h-2.37c-0.55-2.16-0.75-4.03-0.75-6.39h-0.1c-1.81,4.08-5.28,7.25-10.82,7.25
		C367.95,225.79,364.03,223.53,364.03,218.85z M372.83,223.78c6.44,0,10.47-6.14,10.47-10.12v-4.23c-1.56,1.36-2.52,1.76-6.89,2.57
		c-3.52,0.65-9.91,1.86-9.91,6.69C366.49,221.76,368.91,223.78,372.83,223.78z"/>
	<path class="st7" d="M409.37,185.68h13.44c13.08,0,18.62,8.76,18.62,19.37c0,11.67-6.74,19.88-18.17,19.88h-13.89V185.68z
		 M423.77,222.72c9.56,0,15.1-7.15,15.1-17.36c0-10.27-5.54-17.46-16.56-17.46h-10.47c0,11.62,0,23.2,0,34.82H423.77z"/>
	<path class="st7" d="M446.92,211.15c0-8.66,5.64-14.69,13.49-14.69c4.73,0,12.43,2.21,12.43,13.59v1.36h-23.4
		c0,7.4,4.58,12.33,11.07,12.33c5.49,0,9.06-3.62,10.72-7.85l2.06,0.65c-2.16,6.04-7.15,9.26-12.93,9.26
		C452.61,225.79,446.92,219.85,446.92,211.15z M470.27,209.08c0-7.9-5.38-10.57-9.96-10.57c-5.84,0-9.96,4.33-10.77,10.57H470.27z"
		/>
	<path class="st7" d="M480.39,197.26h2.21v5.69h0.1c2.21-4.63,5.99-6.49,9.96-6.49c3.72,0,8.1,1.66,9.41,7.3h0.1
		c2.62-5.49,6.34-7.3,10.27-7.3c4.63,0,9.91,2.52,9.91,11.17v17.31h-2.32v-16.3c0-7.9-4.28-10.12-8.05-10.12
		c-6.09,0-9.46,5.84-9.46,10.62v15.8h-2.31v-16.3c0-7.9-4.28-10.12-8.05-10.12c-6.09,0-9.46,5.84-9.46,10.62v15.8h-2.31V197.26z"/>
	<path class="st7" d="M529.21,211.15c0-8.66,5.64-14.69,13.74-14.69c8.05,0,13.69,6.04,13.69,14.69c0,8.61-5.64,14.64-13.69,14.64
		C534.85,225.79,529.21,219.75,529.21,211.15z M542.95,223.73c6.64,0,11.17-5.18,11.17-12.58c0-7.4-4.53-12.63-11.17-12.63
		s-11.22,5.23-11.22,12.63C531.73,218.54,536.31,223.73,542.95,223.73z"/>
	<path class="st7" d="M561.67,211.15c0-8.71,5.59-14.69,13.64-14.69c4.63,0,9.41,1.96,11.68,7.65l-2.32,0.81
		c-1.46-3.93-4.93-6.39-9.51-6.39c-6.74,0-10.97,5.43-10.97,12.63c0,7.5,4.58,12.58,11.22,12.58c5.54,0,9.11-3.52,10.82-7.85
		l2.06,0.65c-2.21,6.14-7.2,9.26-13.03,9.26C567.21,225.79,561.67,219.8,561.67,211.15z"/>
	<path class="st7" d="M594.49,197.26h2.21v6.14h0.2c1.41-4.23,5.13-6.95,9.31-6.95c1.01,0,2.26,0.15,3.27,0.55v2.47
		c-0.91-0.45-2.52-0.7-3.42-0.7c-5.74,0-9.26,5.84-9.26,11.88v14.29h-2.31V197.26z"/>
	<path class="st7" d="M611.6,218.85c0-5.28,4.88-7.45,10.32-8.56c4.78-0.96,8.96-1.06,8.96-5.03c0-3.42-3.07-6.74-7.8-6.74
		c-4.13,0-7.04,2.57-8.15,6.24l-2.32-0.81c1.61-5.18,6.29-7.5,10.67-7.5c4.48,0,10.06,2.42,10.06,9.06v10.77
		c0,4.63,0.35,6.49,0.91,8.66h-2.37c-0.55-2.16-0.75-4.03-0.75-6.39h-0.1c-1.81,4.08-5.28,7.25-10.82,7.25
		C615.53,225.79,611.6,223.53,611.6,218.85z M620.41,223.78c6.44,0,10.47-6.14,10.47-10.12v-4.23c-1.56,1.36-2.52,1.76-6.89,2.57
		c-3.52,0.65-9.91,1.86-9.91,6.69C614.07,221.76,616.48,223.78,620.41,223.78z"/>
	<path class="st7" d="M643.46,216.78v-17.51c-1.86,0-3.67,0-5.54,0v-2.01h5.54c0-2.77,0-5.59,0-8.35h2.31v8.35c2.92,0,5.84,0,8.76,0
		v2.01h-8.76c0,5.69,0,11.32,0,17.01c0,3.27,0,7.45,3.98,7.45c1.26,0,2.92-0.4,4.78-1.71v2.32c-1.41,0.96-3.32,1.46-5.08,1.46
		C643.46,225.79,643.46,220.1,643.46,216.78z"/>
	<path class="st7" d="M661.63,184.68c1.31,0,2.32,1.06,2.32,2.31c0,1.36-1.01,2.42-2.32,2.42c-1.36,0-2.37-1.06-2.37-2.42
		C659.27,185.73,660.27,184.68,661.63,184.68z M660.42,197.26h2.31v27.68h-2.31V197.26z"/>
	<path class="st7" d="M670.04,211.15c0-8.71,5.59-14.69,13.64-14.69c4.63,0,9.41,1.96,11.67,7.65l-2.31,0.81
		c-1.46-3.93-4.93-6.39-9.51-6.39c-6.74,0-10.97,5.43-10.97,12.63c0,7.5,4.58,12.58,11.22,12.58c5.54,0,9.11-3.52,10.82-7.85
		l2.06,0.65c-2.21,6.14-7.2,9.26-13.03,9.26C675.57,225.79,670.04,219.8,670.04,211.15z"/>
	<path class="st7" d="M717.3,185.68h2.47v39.25h-2.47V185.68z"/>
	<path class="st7" d="M726.81,218.04l2.16-0.7c1.46,3.67,5.28,6.39,9.11,6.39c2.52,0,7.04-1.31,7.04-5.74
		c0-3.52-3.07-4.53-6.39-5.44l-2.57-0.7c-2.37-0.65-8.05-2.21-8.05-7.95c0-5.28,4.93-7.45,8.76-7.45c4.53,0,8.35,2.97,9.61,6.69
		l-2.32,0.8c-1.01-2.82-3.67-5.43-7.65-5.43c-3.42,0-6.04,1.96-6.04,5.13c0,3.93,4.08,5.33,6.89,6.14l2.77,0.81
		c3.07,0.91,7.4,2.26,7.4,6.99c0,4.48-3.92,8.2-9.51,8.2C732.8,225.79,728.37,222.67,726.81,218.04z"/>
	<path class="st7" d="M754.39,197.26h2.21v6.14h0.2c1.41-4.23,5.13-6.95,9.31-6.95c1.01,0,2.26,0.15,3.27,0.55v2.47
		c-0.91-0.45-2.52-0.7-3.42-0.7c-5.74,0-9.26,5.84-9.26,11.88v14.29h-2.32V197.26z"/>
	<path class="st7" d="M771.5,218.85c0-5.28,4.88-7.45,10.32-8.56c4.78-0.96,8.96-1.06,8.96-5.03c0-3.42-3.07-6.74-7.8-6.74
		c-4.13,0-7.04,2.57-8.15,6.24l-2.31-0.81c1.61-5.18,6.29-7.5,10.67-7.5c4.48,0,10.07,2.42,10.07,9.06v10.77
		c0,4.63,0.35,6.49,0.91,8.66h-2.37c-0.55-2.16-0.75-4.03-0.75-6.39h-0.1c-1.81,4.08-5.28,7.25-10.82,7.25
		C775.43,225.79,771.5,223.53,771.5,218.85z M780.31,223.78c6.44,0,10.47-6.14,10.47-10.12v-4.23c-1.56,1.36-2.52,1.76-6.89,2.57
		c-3.52,0.65-9.91,1.86-9.91,6.69C773.97,221.76,776.38,223.78,780.31,223.78z"/>
	<path class="st7" d="M800.14,211.15c0-8.66,5.64-14.69,13.49-14.69c4.73,0,12.43,2.21,12.43,13.59v1.36h-23.4
		c0,7.4,4.58,12.33,11.07,12.33c5.49,0,9.06-3.62,10.72-7.85l2.06,0.65c-2.16,6.04-7.15,9.26-12.93,9.26
		C805.83,225.79,800.14,219.85,800.14,211.15z M823.49,209.08c0-7.9-5.38-10.57-9.96-10.57c-5.84,0-9.96,4.33-10.77,10.57H823.49z"
		/>
	<path class="st7" d="M833.61,184.68h2.32v40.26h-2.32V184.68z"/>
</g>
<g>
	<polygon class="st8" points="223.7,190.03 41.4,193.39 129.33,48.88 	"/>
	<polygon class="st8" points="131.48,234.58 40.31,91.73 222.64,91.73 	"/>
</g>
<g>
	<line class="st9" x1="103.55" y1="127.13" x2="162.01" y2="127.13"/>
	<line class="st9" x1="103.55" y1="152.38" x2="162.01" y2="152.38"/>
</g>
</svg>
