<?xml version="1.0" encoding="utf-8"?>
<!-- Generator: Adobe Illustrator 26.5.0, SVG Export Plug-In . SVG Version: 6.00 Build 0)  -->
<svg version="1.1" id="Layer_1" xmlns="http://www.w3.org/2000/svg" xmlns:xlink="http://www.w3.org/1999/xlink" x="0px" y="0px"
	 viewBox="0 0 283.46 283.46" style="enable-background:new 0 0 283.46 283.46;" xml:space="preserve">
<style type="text/css">
	.st0{fill:#00A651;}
	.st1{enable-background:new    ;}
	.st2{fill:#D7D8EA;}
	.st3{fill:#2D307A;stroke:#00A651;stroke-width:4;stroke-miterlimit:10;}
	.st4{fill:none;stroke:#00A651;stroke-width:10;stroke-miterlimit:10;}
</style>
<rect y="0" class="st0" width="283.46" height="283.46"/>
<g class="st1">
	<path class="st2" d="M70.26,220.02H55.85l-2.47,7.34h-9.21l13.92-36.05h11.18l13.92,36.05H72.73L70.26,220.02z M68.4,214.43
		l-5.31-15.78h-0.11l-5.26,15.78H68.4z"/>
	<path class="st2" d="M86.21,200.29h8.33l-0.27,7.01h0.06c1.26-4.66,4.33-7.45,9.26-7.45c5.21,0,8.55,2.68,9.15,7.07h0.05
		c1.1-4.38,4.06-7.07,9.26-7.07c5.92,0,9.26,3.73,9.26,10.08v17.42h-8.33v-15.51c0-3.18-1.64-5.1-4.49-5.1
		c-3.29,0-5.59,2.52-5.59,7.51v13.1h-8.33v-15.51c0-3.18-1.64-5.1-4.49-5.1c-3.23,0-5.53,2.58-5.53,7.67v12.93h-8.33V200.29z"/>
	<path class="st2" d="M162.33,215.42H143.1c0.38,4.44,2.63,6.36,6.36,6.36c3.23,0,5.31-1.15,5.53-3.78h7.34
		c-0.17,6.19-5.32,9.81-13.04,9.81c-8.99,0-14.58-5.1-14.58-13.7c0-8.93,5.59-14.25,14.74-14.25c7.56,0,12.88,4.33,12.88,13.21
		V215.42z M154.99,210.54c0-3.07-2.08-4.66-5.53-4.66c-3.51,0-5.48,1.53-6.14,5.1h11.67V210.54z"/>
	<path class="st2" d="M166.22,190.81h8.33v6.63h-8.33V190.81z M166.22,200.29h8.33v27.07h-8.33V200.29z"/>
	<path class="st2" d="M178.94,200.29h8.33l-0.33,7.18h0.11c1.37-5.15,4.55-7.62,10.68-7.62c6.52,0,10.74,3.56,10.74,10.58v16.93
		h-8.33v-15.07c0-3.84-2.19-5.53-5.86-5.53c-4.38,0-7.01,2.58-7.01,7.73v12.88h-8.33V200.29z"/>
	<path class="st2" d="M212.09,216.35v-16.05h8.33v15.07c0,3.78,2.08,5.53,5.64,5.53c4.49,0,7.18-2.96,7.18-8.88v-11.73h8.33v27.07
		h-8.33c0.16-1.86,0.33-4.11,0.38-7.07h-0.11c-1.21,5.21-4.88,7.51-10.03,7.51C216.47,227.8,212.09,224.29,212.09,216.35z"/>
</g>
<g>
	<polygon class="st3" points="210.34,150.82 75.79,153.3 140.69,46.64 	"/>
	<polygon class="st3" points="142.27,183.71 74.99,78.26 209.56,78.26 	"/>
</g>
<g>
	<line class="st4" x1="121.66" y1="102.83" x2="164.81" y2="102.83"/>
	<line class="st4" x1="121.66" y1="121.48" x2="164.81" y2="121.48"/>
</g>
</svg>
