<?xml version="1.0" encoding="utf-8"?>
<!-- Generator: Adobe Illustrator 26.5.0, SVG Export Plug-In . SVG Version: 6.00 Build 0)  -->
<svg version="1.1" id="Layer_1" xmlns="http://www.w3.org/2000/svg" xmlns:xlink="http://www.w3.org/1999/xlink" x="0px" y="0px"
	 viewBox="0 0 283.46 283.46" style="enable-background:new 0 0 283.46 283.46;" xml:space="preserve">
<style type="text/css">
	.st0{fill:#2D307A;stroke:#333366;stroke-miterlimit:10;}
	.st1{fill:#D7D8EA;stroke:#303582;stroke-width:4;stroke-miterlimit:10;}
	.st2{fill:none;stroke:#2D307A;stroke-width:10;stroke-miterlimit:10;}
	.st3{enable-background:new    ;}
	.st4{fill:#00A651;}
</style>
<rect y="0" class="st0" width="283.46" height="283.46"/>
<g>
	<polygon class="st1" points="214.51,151.21 78.43,153.72 144.07,45.85 	"/>
	<polygon class="st1" points="145.67,184.47 77.62,77.83 213.72,77.83 	"/>
</g>
<g>
	<line class="st2" x1="123.9" y1="100.46" x2="167.54" y2="100.46"/>
	<line class="st2" x1="123.9" y1="119.31" x2="167.54" y2="119.31"/>
</g>
<g class="st3">
	<path class="st4" d="M73.9,221.42H59.79l-2.41,7.19h-9.01l13.62-35.29h10.94l13.62,35.29H76.31L73.9,221.42z M72.08,215.95
		l-5.2-15.45h-0.11l-5.15,15.45H72.08z"/>
	<path class="st4" d="M89.51,202.12h8.15l-0.27,6.87h0.05c1.23-4.56,4.24-7.29,9.06-7.29c5.1,0,8.37,2.63,8.96,6.92h0.05
		c1.07-4.29,3.97-6.92,9.06-6.92c5.79,0,9.06,3.65,9.06,9.87v17.06h-8.15v-15.18c0-3.11-1.61-4.99-4.4-4.99
		c-3.22,0-5.47,2.47-5.47,7.35v12.82h-8.15v-15.18c0-3.11-1.61-4.99-4.4-4.99c-3.16,0-5.42,2.52-5.42,7.51v12.66h-8.15V202.12z"/>
	<path class="st4" d="M164.01,216.92h-18.83c0.38,4.34,2.57,6.22,6.22,6.22c3.17,0,5.2-1.13,5.42-3.7h7.19
		c-0.16,6.06-5.2,9.6-12.76,9.6c-8.8,0-14.27-4.99-14.27-13.41c0-8.74,5.47-13.95,14.43-13.95c7.4,0,12.6,4.24,12.6,12.93V216.92z
		 M156.83,212.15c0-3-2.04-4.56-5.42-4.56c-3.43,0-5.36,1.5-6.01,4.99h11.42V212.15z"/>
	<path class="st4" d="M167.83,192.84h8.15v6.49h-8.15V192.84z M167.83,202.12h8.15v26.5h-8.15V202.12z"/>
	<path class="st4" d="M180.27,202.12h8.15l-0.32,7.03h0.11c1.34-5.04,4.45-7.46,10.46-7.46c6.38,0,10.51,3.49,10.51,10.35v16.57
		h-8.15v-14.75c0-3.75-2.15-5.42-5.74-5.42c-4.29,0-6.87,2.52-6.87,7.56v12.6h-8.15V202.12z"/>
	<path class="st4" d="M212.72,217.83v-15.71h8.15v14.75c0,3.7,2.04,5.42,5.52,5.42c4.4,0,7.03-2.9,7.03-8.69v-11.48h8.15v26.5h-8.15
		c0.16-1.82,0.32-4.02,0.38-6.92h-0.11c-1.18,5.1-4.77,7.35-9.82,7.35C217.01,229.04,212.72,225.61,212.72,217.83z"/>
</g>
</svg>
