<?xml version="1.0" encoding="utf-8"?>
<!-- Generator: Adobe Illustrator 26.5.0, SVG Export Plug-In . SVG Version: 6.00 Build 0)  -->
<svg version="1.1" id="Layer_1" xmlns="http://www.w3.org/2000/svg" xmlns:xlink="http://www.w3.org/1999/xlink" x="0px" y="0px"
	 viewBox="0 0 283.46 283.46" style="enable-background:new 0 0 283.46 283.46;" xml:space="preserve">
<style type="text/css">
	.st0{fill:#D7D8EA;}
	.st1{enable-background:new    ;}
	.st2{fill:#00A651;}
	.st3{fill:#2D307A;stroke:#D7D8EA;stroke-width:4;stroke-miterlimit:10;}
	.st4{fill:none;stroke:#D7D8EA;stroke-width:10;stroke-miterlimit:10;}
</style>
<rect y="0" class="st0" width="283.46" height="283.46"/>
<g class="st1">
	<path class="st2" d="M66.02,216.77H51.68l-2.45,7.31h-9.16l13.85-35.88h11.12l13.85,35.88H68.47L66.02,216.77z M64.17,211.2
		l-5.29-15.7h-0.11l-5.23,15.7H64.17z"/>
	<path class="st2" d="M81.89,197.14h8.29l-0.27,6.98h0.05c1.25-4.63,4.31-7.41,9.21-7.41c5.18,0,8.5,2.67,9.1,7.03h0.05
		c1.09-4.36,4.03-7.03,9.21-7.03c5.89,0,9.21,3.71,9.21,10.03v17.34h-8.29v-15.43c0-3.16-1.64-5.07-4.47-5.07
		c-3.27,0-5.56,2.51-5.56,7.47v13.03h-8.29v-15.43c0-3.16-1.64-5.07-4.47-5.07c-3.22,0-5.51,2.56-5.51,7.63v12.87h-8.29V197.14z"/>
	<path class="st2" d="M157.62,212.19h-19.14c0.38,4.42,2.62,6.33,6.32,6.33c3.22,0,5.29-1.15,5.51-3.76h7.31
		c-0.16,6.16-5.29,9.76-12.98,9.76c-8.94,0-14.5-5.07-14.5-13.63c0-8.89,5.56-14.18,14.67-14.18c7.52,0,12.81,4.31,12.81,13.14
		V212.19z M150.31,207.33c0-3.05-2.07-4.63-5.51-4.63c-3.49,0-5.45,1.53-6.11,5.07h11.61V207.33z"/>
	<path class="st2" d="M161.49,187.71h8.29v6.6h-8.29V187.71z M161.49,197.14h8.29v26.93h-8.29V197.14z"/>
	<path class="st2" d="M174.13,197.14h8.29l-0.33,7.14h0.11c1.36-5.12,4.53-7.58,10.63-7.58c6.49,0,10.69,3.54,10.69,10.52v16.85
		h-8.29v-14.99c0-3.82-2.18-5.51-5.83-5.51c-4.36,0-6.98,2.56-6.98,7.69v12.81h-8.29V197.14z"/>
	<path class="st2" d="M207.12,213.11v-15.97h8.29v14.99c0,3.76,2.07,5.51,5.62,5.51c4.47,0,7.14-2.94,7.14-8.83v-11.67h8.29v26.93
		h-8.29c0.16-1.85,0.33-4.09,0.38-7.03h-0.11c-1.2,5.18-4.85,7.47-9.98,7.47C211.48,224.51,207.12,221.02,207.12,213.11z"/>
</g>
<g>
	<polygon class="st3" points="206.38,147.92 72.51,150.39 137.08,44.27 	"/>
	<polygon class="st3" points="138.66,180.64 71.71,75.73 205.6,75.73 	"/>
</g>
<g>
	<line class="st4" x1="118.15" y1="101.18" x2="161.08" y2="101.18"/>
	<line class="st4" x1="118.15" y1="119.73" x2="161.08" y2="119.73"/>
</g>
</svg>
